<svg xmlns="http://www.w3.org/2000/svg" width="1080" height="1080" xmlns:v="https://vecta.io/nano"><path d="M326.492 4.866l5.842-.007 15.957-.005 17.248-.01 33.757-.012 27.457-.006 65.271-.013h2.106 10.565 2.119 4.243l65.965-.021 74.225-.023 39.257-.013 33.43-.004 17.033-.005 15.638.002 5.612-.006c16.97-.048 34.053.867 50.783 3.88l2.798.501C870.956 19.554 923.01 43.825 964.547 81.77l4.844 4.305C981.313 96.477 991.533 108.361 1001 121l1.252 1.653c11.319 15.023 20.757 31.338 28.748 48.347l.966 2.001c23.729 49.285 29.189 104.869 29.181 158.901l.011 6.119.016 16.652.022 18.023.037 41.376.015 20.489.04 70.272.001 4.401.001 2.204.004 11.054.001 2.216.064 71.099.057 75.348.001 8.288v2.061l.038 32.672.016 32.898.017 17.782c.143 45.794.143 45.794-4.49 67.144l-.884 4.332c-.686 3.25-1.464 6.455-2.304 9.668l-.896 3.479c-5.576 21.064-13.317 40.98-22.917 60.521l-1.155 2.369c-8.16 16.558-18.387 32.171-29.845 46.631l-2.164 2.746C983.387 978.498 968.135 994.989 951 1008l-3.559 2.781c-38.392 29.716-82.435 47.836-129.516 58.569l-2.049.473-5.497 1.245c-3.418.832-3.418.832-6.532 2.466-4.27 1.849-8.182 1.885-12.782 1.849l-2.67.015c-2.955.013-5.909.005-8.864-.004l-6.416.018-17.641.009c-6.341-.003-12.682.012-19.023.024l-37.279.024c-10.103-.001-20.206.002-30.309.01l-4.356.003-2.184.002-2.188.002-2.192.002-61.037.018h-2.325l-11.664-.003h-2.34l-4.684-.001c-24.276-.006-48.553.009-72.829.042l-81.854.05-8.737-.001h-2.173c-10.806-.001-21.611.011-32.417.029l-36.901.006a3954.86 3954.86 0 0 0-18.817.01 2393.1 2393.1 0 0 1-17.251-.009c-2.072-.004-4.144 0-6.216.014-11.385.07-21.36-.719-32.174-4.439-4.789-1.633-9.633-2.601-14.588-3.577-20.097-4.213-39.171-10.296-57.937-18.625l-2.527-1.118c-28.126-12.569-53.55-29.953-76.199-50.796l-4.609-4.109C98.371 982.275 87.74 970.029 78 957l-1.558-2.058c-7.892-10.455-14.873-21.197-21.189-32.672l-3.584-6.368c-21.921-39.145-31.376-84.072-31.978-128.595l-.062-3.985-.15-10.906-.093-7.063-.552-133.823-.005-21.743-.013-72.217v-3.884-3.889l-.023-62.802-.02-64.988-.013-36.29-.004-30.764-.005-15.643c-.082-51.973-.082-51.973 4.439-72.811l.647-3.091C38.954 173.631 76.62 109.17 134 66l1.694-1.277C190.734 23.58 258.31 4.804 326.492 4.866z" fill="#f15a24"/><path d="M719 109l2.618.827c61.291 19.618 111.645 58.274 141.695 115.62 32.515 64.14 34.157 146.966 12.399 214.9C864.25 474.427 847.108 505.14 822 531l-1.809 1.887C811.35 542.084 802.296 550.466 792 558l-1.757 1.303c-8.152 6.033-16.53 11.502-25.243 16.697l-2.261 1.395c-5.788 3.544-11.662 6.656-17.801 9.543l-2.967 1.408-27.485 12.592-48.073 22.535-23.496 11.074c-68.849 32.274-136.776 71.908-165.475 146.379-1.284 3.66-2.419 7.335-3.441 11.074l-.635 2.292c-3.819 14.079-5.845 28.215-7.365 42.708-5.026-.559-9.106-2.221-13.562-4.5l-2.12-1.079C422.786 817.071 404.297 794.006 394 765l-.981-2.732c-9.371-26.941-9.697-57.474-4.019-85.268l.504-2.471c5.481-25.837 15.581-51.228 31.012-72.751 1.703-2.643 1.703-2.643 1.434-5.434-1.091-2.695-2.202-3.878-4.387-5.781-17.429-16.714-29.853-42.284-30.934-66.402-.682-33.791 12.882-64.628 35.944-89.187C433.717 423.509 447.347 415.275 462 409h3c1.785 7.903 2.197 15.616 2.438 23.688.753 21.589 4.22 41.693 20.578 57.227C515.161 512.737 554.773 509.382 588 509l2.621-.022c28.885-.391 59.844-6.919 87.065-16.195l6.919-2.263c39.33-12.875 91.168-34.41 111.484-72.566 3.567-7.957 2.738-16.472-.09-24.516-2.783-6.558-6.553-11.911-11-17.437l-1.953-2.566C757.316 340.485 720.86 319.849 680 312l-2.992-.582C597.437 297.054 502.9 325.101 435 366l-1.863 1.119c-23.174 13.986-44.638 30.386-64.625 48.616l-4.247 3.756c-5.52 4.747-10.692 9.788-15.827 14.947l-2.459 2.447c-4.868 4.876-9.504 9.878-13.979 15.115l-2.633 2.992c-19.548 22.612-34.735 47.397-43.617 76.008l-.71 2.26c-4.262 14.429-5.652 28.763-5.602 43.74l-.001 2.563c.045 14.838 1.768 28.304 6.563 42.438l.744 2.243c1.496 4.384 3.269 8.567 5.256 12.757l.85 1.815c8.054 16.938 20.062 31.443 33.482 44.427C332.96 689.665 338.6 695.77 343 704l1.234 2.262c3.63 7.326 4.44 15.113 5.188 23.168.981 10.541 2.602 20.405 5.578 30.57l1.055 3.66C366.641 797.793 389.714 829.331 418 851l1.816 1.392c14.534 10.993 30.073 19.875 47.372 25.733l2.534.859c5.731 1.814 11.286 2.634 17.278 3.016l.308-1.82c1.52-8.684 3.444-17.269 5.38-25.868l2.152-9.613.548-2.448 3.554-16.232.925-4.288 1.699-7.949c6.728-31.182 6.728-31.182 16.435-37.782 10.723-4.269 22.306-.396 33.114 2.052 6.396 1.44 12.783 2.694 19.261 3.698l2.247.349L579 783l1.976.29c7.618 1.004 15.291.953 22.962.96l2.263.003c14.091-.013 27.869-1.042 41.799-3.253l2.463-.374C675.543 776.66 699.642 766.698 722 755l2.3-1.182C742.12 744.6 758.097 732.136 774 720l3.316-2.512c11.645-8.852 22.966-18.115 34.097-27.603l10.211-8.448c4.699-3.82 9.157-7.855 13.609-11.957 2.771-2.485 5.616-4.835 8.516-7.168 3.761-3.036 7.227-6.17 10.586-9.641 2.391-2.402 4.948-4.59 7.512-6.805 6.731-5.839 13.275-11.892 19.833-17.923l8.257-7.382c4.667-4.049 9.18-8.262 13.711-12.461l9.227-8.477 13.938-12.875 1.849-1.716a341.65 341.65 0 0 0 10.718-10.447c1.646-1.612 3.356-3.105 5.12-4.587 4.886-4.199 9.361-8.809 13.869-13.406 3.033-3.075 6.096-6.037 9.381-8.844 5.543-4.779 10.614-10.044 15.75-15.25 11.042-11.192 11.042-11.192 15.313-14.812 6.608-5.645 12.579-12.015 18.688-18.187 14.745-14.901 14.745-14.901 20.778-20.022 8.216-7.049 16.246-14.493 20.722-24.478h1l.466 33.564.213 15.587.175 15.056.098 5.73c.366 14.939.366 14.939-2.883 20.179-2.241 2.272-4.449 4.075-7.068 5.885l-3.75 3.313-1.965 1.695c-13.026 11.356-24.487 23.309-34.879 37.136l-8.156 10.543-3.602 4.629-7.234 9.273-17.955 23.453-10.709 14.145-1.607 2.099-7.115 9.284-20.17 27.055c-4.398 6.216-9.056 12.233-13.687 18.276l-13.358 17.849L887 756l-1.719 2.23-23.857 30.03-3.814 4.689c-5.067 6.243-10.266 12.364-15.516 18.453l-6 7.039c-7.135 8.446-14.6 16.532-22.205 24.556l-7.317 7.854c-8.562 9.235-17.187 18.414-26.791 26.582-1.79 1.574-3.438 3.227-5.094 4.941-3.702 3.77-7.772 7.013-11.887 10.32-2.563 2.109-4.997 4.295-7.426 6.555-6.372 5.789-13.23 10.925-20.125 16.069l-4.375 3.291c-44.734 33.864-97.43 57.238-152.051 69.522l-6.992 1.672c-10.473 2.628-21.125 3.927-31.832 5.195l-2.646.325c-92.569 11.018-188.947-15.364-262.417-72.716-2.68-2.166-5.313-4.377-7.937-6.609l-3.285-2.727c-11.478-9.59-22.299-19.812-31.578-31.578-2.285-2.883-4.676-5.656-7.074-8.445-26.19-31.452-43.748-71.977-53.367-111.432l-2.039-7.928c-11.429-44.095-12.539-92.058-7.101-137.156l1.218-11.109C171.382 536.386 195.825 469.857 227 408l1.562-3.111C243.022 376.235 260.275 349.04 279 323l1.75-2.441c7.853-10.921 16.086-21.434 24.732-31.737l6.08-7.509c4.016-4.925 8.3-9.571 12.658-14.192 2.673-2.836 5.281-5.698 7.806-8.667 5.058-5.814 10.569-11.198 16.024-16.635l5.634-5.64c5.937-5.94 11.898-11.752 18.314-17.178l4.813-4.375c5.251-4.727 10.658-9.228 16.188-13.625l1.97-1.567c10.754-8.527 21.72-16.661 33.03-24.433l1.795-1.247C450.502 159.404 472.492 147.258 495 136l2.534-1.287C535.866 115.295 577.351 103.611 620 99l2.669-.292c31.942-3.223 65.771.508 96.331 10.292z" fill="#fefefe"/></svg>