<svg xmlns="http://www.w3.org/2000/svg" width="1080" height="1080" xmlns:v="https://vecta.io/nano"><path d="M585 30l2.794 1.62 14.799 8.642L623 52l29.067 16.783 31.651 18.325L700 96.5l6.5 3.75 169 97.5 3.25 1.875 6.495 3.748 16.325 9.412 34.226 19.866 16.473 9.43c21.69 12.151 41.174 23.238 49.289 48.398 2.287 8.591 1.863 17.363 1.836 26.185l.018 6.008.009 16.456.024 17.769.024 34.793.01 28.288.003 4.069.002 2.04.002 2.044.002 2.048.018 56.992v2.169l-.003 10.882v2.183l-.001 4.37.042 67.977.05 76.436-.001 8.158v2.029l.029 30.261.006 34.438.01 17.559-.009 16.098.014 5.8c.109 16.642-2.329 30.79-12.641 44.466l-1.547 2.133c-7.937 10.019-20.677 16.361-31.641 22.492l-3.657 2.068-5.623 3.179-18.782 10.753-3.239 1.87-24.477 14.239-31.751 18.376L854 894.5l-6.5 3.75-3.25 1.875-169 97.5-6.495 3.748-16.325 9.412-31.305 18.152-33.723 19.41-11.273 6.523c-16.758 9.879-32.558 12.295-51.863 9.609-10.441-2.745-20.003-9.098-29.266-14.48l-2.794-1.62-14.799-8.642L457 1028l-29.067-16.783-31.651-18.325L380 983.5l-6.5-3.75-117-67.5-3.25-1.875-6.495-3.748-16.325-9.412-31.305-18.152L173 864l-29.032-16.766-15.89-9.195-3.515-2.011-6.661-3.792A205.45 205.45 0 0 1 99 820l-3.125-2.25c-10.248-9.802-18.645-24.394-19.129-38.841l-.006-4.438-.012-2.5-.003-8.275-.016-6-.015-16.477-.026-17.776-.035-36.842v-2.022l-.001-2.026-.016-22.249-.039-67.231v-2.171l-.001-8.711-.001-6.556v-2.188l-.061-68.036-.065-76.479v-8.163-2.03l-.037-30.284-.017-34.471-.016-17.577.003-16.115-.016-5.806C76.249 297.832 78.682 283.683 89 270l1.547-2.133c7.967-10.057 20.762-16.405 31.766-22.555l5.552-3.139 3.741-2.114L149 230l26-15 29.067-16.783 31.651-18.325L252 170.5l6.5-3.75 3.25-1.875 143-82.5 6.495-3.748 16.325-9.412 31.305-18.152 33.723-19.41 11.273-6.523C532.566 8.213 557.665 14.116 585 30z" fill="#ee7617"/><path d="M542.027 273.508c3.28 1.646 6.429 3.42 9.535 5.367 6.063 3.718 12.19 7.301 18.375 10.813l22.625 13.063L619 318l29.414 16.992L667.5 346l22.063 12.75L716 374l34.659 20.133c2.571 1.436 4.837 2.469 7.56 3.495 4.911 2.039 9.304 4.252 12.781 8.372 3.256 7.922 2.344 17.169 2.231 25.562l.1 7.872.032 19.121-.011 15.55.01 2.24.02 4.506-.07 42.203.055 36.163.112 42.053-.014 4.49-.007 2.231.071 15.518-.068 20.913.034 7.664c.304 18.762.304 18.762-4.325 23.976-4.482 3.555-9.381 5.809-14.678 7.887-4.112 1.734-7.868 4.053-11.678 6.362l-2.626 1.519-15.998 9.316-28.254 16.313L676 729l-25.071 14.463-19.804 11.474-26.968 15.447-18.807 10.878-19.521 11.246c-4.298 2.436-8.549 4.915-12.732 7.546l-2.324 1.441-4.27 2.734c-3.097 1.917-4.866 2.871-8.523 2.289-3.493-1.781-6.884-3.668-10.23-5.707l-4.551-2.719-2.51-1.5-15.126-8.781-3.351-1.93-6.817-3.927L479 772.5l-6.5-3.75-39-22.5-3.25-1.875-6.495-3.748-16.325-9.412-31.305-18.152L350 698l-27.562-15.875-3.064-1.785c-3.51-2.051-6.989-4.084-10.373-6.34-.392-1.955-.392-1.955-.417-4.404l-.05-2.822-.009-3.122-.044-3.3-.091-11.022-.084-7.873-.183-23.686-.041-6.691-.209-41.554-.033-9.629-.008-2.417-.305-38.74-.248-39.779-.168-22.332-.099-19.026-.079-9.701c-.42-18.919-.42-18.919 3.726-23.892 4.014-3.319 8.411-5.367 13.259-7.185 3.054-1.21 5.715-2.842 8.515-4.555l6.004-3.457 6.746-3.887 3.421-1.97L365 373.5l6.5-3.75 3.25-1.875 39-22.5 6.495-3.748 16.325-9.412 31.305-18.152 27.894-16.071 31.281-18.101 2.596-1.498a90.9 90.9 0 0 0 4.358-2.738c2.977-1.948 4.449-2.746 8.022-2.146z" fill="#e2e2e2"/><path d="M1003 541l.255 91.671.019 10.844.004 2.18.107 34.867.085 35.826.058 20.102.037 18.95.03 6.927c.142 17.924-1.437 32.834-12.596 47.632l-1.547 2.133c-7.937 10.019-20.677 16.361-31.641 22.492l-3.657 2.068-5.623 3.179-18.782 10.753-3.239 1.87-24.477 14.239-31.751 18.376L854 894.5l-6.5 3.75-3.25 1.875-169 97.5-6.495 3.748-16.325 9.412-31.305 18.152-33.723 19.41-11.273 6.523c-16.758 9.879-32.558 12.295-51.863 9.609-10.441-2.745-20.003-9.098-29.266-14.48l-2.794-1.62-14.799-8.642L457 1028l-29.067-16.783-31.651-18.325L380 983.5l-6.5-3.75-16.255-9.378-6.454-3.723-15.154-8.743-5.367-3.097-6.734-3.887L308 942c2.84-3.069 5.599-5.099 9.262-7.102l3.113-1.719 3.313-1.805 6.859-3.793 3.373-1.865a476.48 476.48 0 0 0 11.518-6.655l21-12.25 3.355-1.933 6.812-3.924L393 891.5l19.57-11.285 31.305-18.152 27.913-16.082 27.267-15.758 48.113-27.735 22.89-13.277 22.012-12.674 19.804-11.474 26.968-15.447 18.823-10.887 16.397-9.479 22.625-13.062 52.092-30.038c6.262-3.575 12.452-7.255 18.603-11.017 3.82-2.293 7.738-4.399 11.655-6.522 12.913-7.022 25.737-14.223 38.379-21.722l19.021-11.076 3.355-1.933 6.812-3.924L863 620.5l6.5-3.75 3.25-1.875 61.75-35.625 3.251-1.876 6.488-3.743 16.437-9.487 16.206-9.346 9.349-5.408 5.77-3.328 2.681-1.559 2.444-1.406 2.133-1.234C1001 541 1001 541 1003 541z" fill="#ee7617"/><path d="M773.017 139.136c2.506 1.092 4.862 2.33 7.245 3.673l3.113 1.748 3.313 1.881 3.428 1.934 20.3 11.739 19.022 11.077 3.355 1.933 6.812 3.924L856 186.5l6.5 3.75 13 7.5 3.25 1.875 6.495 3.748 16.325 9.412 34.226 19.866 16.473 9.43c41.804 23.419 41.804 23.419 49.291 48.966 1.5 5.606 1.856 10.76 1.801 16.538l.008 3.048-.028 10.013.001 7.217-.031 17.5-.029 20.378-.055 36.336-.062 35.278-.002 2.2-.011 10.926L1003 541l-1.737.953-7.874 4.324-2.733 1.499-19.156 10.912L945 574l-29.067 16.783-31.651 18.325L868 618.5l-6.5 3.75-3.25 1.875-39.006 22.503-6.444 3.718-15.265 8.799-7.231 4.164-5.119 2.944-3.119 1.797-2.752 1.583c-1.806 1.066-3.57 2.203-5.315 3.366h-3l-1-267-25-14-12.773-7.512-14.602-8.426-38.432-22.208-28.259-16.316-22.993-13.328-22.012-12.674-19.804-11.474-27.289-15.625L551 280l-2.884-1.637-2.78-1.613-2.522-1.453L541 274v-2c1.791-1.274 1.791-1.274 4.336-2.73l2.875-1.66 3.165-1.797 3.27-1.881 6.882-3.945 13.14-7.57 9.742-5.619 13.273-7.656 29.941-17.203 25.087-14.518 31.984-18.515 9.988-5.764 29.941-17.203 28.691-16.613 2.797-1.624 6.128-3.71 3.223-1.971 2.922-1.821c2.615-1.2 2.615-1.2 4.632-1.064zM309 407l1 267 25 14 12.469 7.328 16.969 9.859 3.355 1.933 6.812 3.924L391 720.5l6.5 3.75 65 37.5 3.25 1.875 6.495 3.748 16.325 9.412 35.604 20.649L539 806v2l-87.75 50.625-6.495 3.748-16.325 9.412-31.305 18.152L371 905l-26.25 15.125-2.909 1.694-15.528 9.201-3.327 1.986-6.322 3.817-2.866 1.705-2.521 1.523c-2.71 1.13-3.591 1.041-6.276-.051a90.72 90.72 0 0 1-4.578-2.449l-2.729-1.548-2.943-1.69-3.093-1.762-24.32-14.105L244 905l-29.067-16.783-31.651-18.325-19.527-11.264-19.61-11.305-9.719-5.616-13.008-7.445c-20.52-11.697-36.383-23.006-43.48-46.825-1.19-4.898-1.21-9.643-1.179-14.662l-.005-3.04.019-10.041-.001-7.215.021-17.531.02-20.408.037-36.391.041-35.34.002-2.202.008-10.938L77 539l2.107-1.176 9.654-5.394 3.313-1.849 21.737-12.456 3.327-1.949 2.63-1.543L140 503l29.067-16.783 31.651-18.325L217 458.5l6.5-3.75 3.25-1.875 13-7.5 6.495-3.748 16.325-9.412 3.287-1.894 6.483-3.733 16.523-9.642 3.345-1.974 6.317-3.756 2.845-1.679 2.498-1.488C306 407 306 407 309 407z" fill="#5ad4bc"/><path d="M541.456 807.615L544 809l2.725 1.458 2.974 1.71 3.374 1.934 3.615 2.086 3.771 2.166 9.678 5.572 8.578 4.942 16.067 9.274L611 847.5l6.5 3.75 3.25 1.875 35.75 20.625 3.25 1.875 6.495 3.748 16.325 9.412 31.305 18.152 24.743 14.275 25.569 14.662 2.105 1.208c4.591 2.685 4.591 2.685 5.707 4.917l-1.73.971-36.077 20.656-31.911 18.481L686 991.5l-6.5 3.75-3.25 1.875-61.75 35.625-3.253 1.877-6.468 3.726-14.986 8.716-5.228 3.074-6.5 3.848c-17.475 10.223-33.772 13.205-53.834 10.502-10.427-2.815-19.961-9.106-29.23-14.492l-2.794-1.62-14.799-8.642L457 1028l-29.067-16.783-31.651-18.325L380 983.5l-6.5-3.75-16.255-9.378-6.454-3.723-15.154-8.743-5.367-3.097-6.734-3.887L308 942c2.84-3.069 5.599-5.099 9.262-7.102l3.113-1.719 3.313-1.805 6.859-3.793 3.373-1.865a476.48 476.48 0 0 0 11.518-6.655l21-12.25 3.355-1.933 6.812-3.924L393 891.5l19.57-11.285 31.305-18.152 27.913-16.082 27.232-15.738 26.517-15.358 3.13-1.802 2.759-1.587c2.619-1.465 2.619-1.465 5.094-3.313C539 807 539 807 541.456 807.615z" fill="#7db327"/><path d="M585 30l2.794 1.62 14.799 8.642L623 52l29.067 16.783 31.651 18.325L700 96.5l6.5 3.75 16.255 9.378 6.454 3.723 15.154 8.743 5.367 3.097 6.734 3.887L772 138c-2.84 3.069-5.599 5.099-9.262 7.102l-3.114 1.719-3.312 1.804-6.84 3.781-3.371 1.863c-3.988 2.225-7.928 4.521-11.852 6.855l-18.625 10.813-41.187 23.813-51.606 29.762-22.89 13.277L580.5 250c-18.916 10.256-18.916 10.256-37 21.808-2.5 1.192-2.5 1.192-4.956.577L536 271l-2.725-1.458-2.974-1.71-3.374-1.934-3.615-2.086-3.771-2.166-9.678-5.572-8.578-4.942-16.067-9.274-12.964-7.482-9.746-5.623-13.078-7.539-31.305-18.152L392 188l-29.052-16.775-22.261-12.913-3.274-1.89-15.242-8.743-2.694-1.54-4.958-2.816c-5.408-3.098-5.408-3.098-6.52-5.323l1.73-.971 36.077-20.656 31.911-18.481L394 88.5l6.5-3.75 3.25-1.875L465.5 47.25l3.253-1.877 6.468-3.726 14.986-8.716 5.228-3.074 6.5-3.848C531.405 8.77 556.72 13.567 585 30z" fill="#7eb427"/><path d="M309 407v267l-20 11-11.5 6.688L251 707l-29.067 16.783-31.651 18.325L174 751.5l-6.5 3.75-3.25 1.875-13.001 7.5-6.49 3.745-16.399 9.45-6.609 3.805-3.231 1.858-15.937 9.349-3.075 1.839-5.744 3.47-2.571 1.542-2.244 1.361C87 802 87 802 84 802l-2.375-5-1.336-2.812c-2.93-7.244-3.578-13.687-3.53-21.413l-.005-3.04.019-10.041-.001-7.215.021-17.531.02-20.408.037-36.391.041-35.34.002-2.202.008-10.938L77 539l2.107-1.176 9.654-5.394 3.313-1.849 21.737-12.456 3.327-1.949 2.63-1.543L140 503l29.067-16.783 31.651-18.325L217 458.5l6.5-3.75 3.25-1.875 13-7.5 6.495-3.748 16.325-9.412 3.287-1.894 6.483-3.733 16.523-9.642 3.345-1.974 6.317-3.756 2.845-1.679 2.498-1.488C306 407 306 407 309 407z" fill="#7a4587"/><path d="M995.277 277.824c2.887 1.97 3.35 4.742 4.41 7.988l1.262 3.77c1.245 4.049 2.176 7.478 2.174 11.721l.006 2.6-.009 2.842.003 3.03-.009 10.079v7.214l-.008 15.545-.012 22.475-.018 36.464-.021 35.422-.001 2.205-.004 10.953L1003 541l-1.737.953-7.874 4.324-2.733 1.499-19.156 10.912L945 574l-29.067 16.783-31.651 18.325L868 618.5l-6.5 3.75-3.25 1.875-39.006 22.503-6.444 3.718-15.265 8.799-7.231 4.164-5.119 2.944-3.119 1.797-2.752 1.583c-1.806 1.066-3.57 2.203-5.315 3.366h-3V406l20-11 12.617-7.418 14.445-8.332 22.625-13.062 48.938-28.25 25.087-14.518 38.692-22.379 6.813-3.925 6.617-3.806 14.436-8.508 2.386-1.448 4.272-2.649c2.452-1.491 4.456-2.656 7.349-2.88z" fill="#794587"/><path d="M542.105 273.48c3.227 1.694 6.371 3.46 9.457 5.395 6.063 3.718 12.19 7.301 18.375 10.813l22.625 13.063L619 318l29.414 16.992L667.5 346l22.063 12.75L716 374l55 32c-2.777 2.989-5.439 5.011-9.016 6.961l-3.004 1.656-3.231 1.758-6.832 3.777-1.756.971c-5.75 3.186-11.43 6.487-17.099 9.814l-5.973 3.5-3.02 1.77-15.945 9.23-3.273 1.886-6.57 3.785L679 460.5l-6.5 3.75-3.25 1.875-61.75 35.625-3.251 1.876-6.488 3.743-19.77 11.413-6.549 3.767-15.532 9.131-2.899 1.732-5.34 3.261c-5.774 3.421-5.774 3.421-9.577 3.023-4.663-2.555-9.277-5.158-13.844-7.883l-6.492-3.828-3.382-1.998-16.251-9.424-6.555-3.777-3.288-1.894L472 501.5l-6.5-3.75-91-52.5-3.251-1.876-6.485-3.743-16.474-9.487L309 407c2.508-2.818 5.299-4.457 8.574-6.301l3.424-1.94 1.82-1.022 9.56-5.409 1.959-1.11 17.787-10.281 34.593-20.046L403 351.5l6.5-3.75 3.25-1.875 65.002-37.501 6.483-3.74 16.511-9.524 3.364-1.942 6.588-3.787 14.946-8.838 2.629-1.597 4.767-2.975c5.129-3.1 5.129-3.1 9.065-2.491z" fill="#fcfcfc"/><path d="M771 407l.97 101.481.073 11.99.015 2.411.407 38.612.322 39.64.263 24.446.106 16.779.108 9.671c.51 18.821.51 18.821-4.085 24.036-4.48 3.564-9.382 5.812-14.685 7.886-4.116 1.73-7.871 4.051-11.682 6.361l-2.626 1.519-15.998 9.316-28.254 16.313L676 729l-25.071 14.463-19.804 11.474-26.968 15.447-18.803 10.876-19.659 11.323c-6.13 3.49-12.194 7.073-18.167 10.827-2.759 1.699-4.22 2.59-7.529 2.59l-1.226-100.946-.093-11.933-.019-2.399-.514-38.402-.406-39.44-.332-24.313c-.143-6.228-.157-12.451-.125-18.681a226.72 226.72 0 0 0-.146-7.636c-.541-15.695-.541-15.695 2.861-22.251 5.95-6.001 13.548-9.463 21.218-12.773 3.487-1.538 6.648-3.365 9.899-5.348l5.758-3.316 6.555-3.777 3.288-1.894L603 503.5l6.5-3.75 3.25-1.875 65-37.5 6.495-3.748 16.325-9.412L732 429l24.671-14.352 5.218-3.027 3.17-1.832 2.822-1.634C770 407 770 407 771 407z" fill="#eeedee"/><path d="M540 807l22.813 12.563 21.625 12.625 3.353 1.932 6.815 3.925L611 847.5l6.5 3.75 39 22.5 3.25 1.875 6.495 3.748 16.325 9.412 31.305 18.152 24.743 14.275 25.569 14.662 2.105 1.208c4.591 2.685 4.591 2.685 5.707 4.917l-1.73.971-36.077 20.656-31.911 18.481L686 991.5l-6.5 3.75-3.25 1.875-61.75 35.625-3.253 1.877-6.468 3.726-14.986 8.716-5.228 3.074-6.5 3.848C565.359 1061.423 554.881 1065 540 1065V807z" fill="#b7cc06"/><path d="M540 15v258l-14-8-8.898-4.968-30.869-17.64L463 229l-29.067-16.783-31.651-18.325L386 184.5l-6.5-3.75-13-7.5-3.253-1.877-6.468-3.733-14.987-8.632L308 139c4.007-3.439 8.193-5.89 12.813-8.375 7.298-3.991 14.511-8.107 21.688-12.312l25.375-14.75 3.271-1.885 6.571-3.786L394 88.5l6.5-3.75 3.25-1.875L465.5 47.25l3.253-1.877 6.468-3.726 14.986-8.716 5.228-3.074 6.5-3.848C514.641 18.577 525.119 15 540 15z" fill="#b8cc06"/><path d="M772 407a80.53 80.53 0 0 1 10.699 5.168l3.374 1.934 3.615 2.086 3.771 2.166 9.678 5.572 8.578 4.942 16.067 9.274L844 447.5l6.5 3.75 3.25 1.875 35.75 20.625 3.25 1.875 6.495 3.748 16.325 9.412 34.231 19.864 25.568 14.692L1002 539c-1.446 4.338-4.718 5.294-8.562 7.313l-4.98 2.699-2.693 1.462c-4.764 2.63-9.448 5.394-14.139 8.151L945 574l-29.067 16.783-31.651 18.325L868 618.5l-6.5 3.75-3.25 1.875-35.75 20.625-3.255 1.878-6.449 3.718-15.21 8.799-7.172 4.164-5.053 2.944-3.1 1.797-2.72 1.583C777 671 777 671 772 673V407z" fill="#4d3883"/><path d="M771 674v266a80.53 80.53 0 0 1-10.699-5.168l-3.374-1.934-3.615-2.086-3.771-2.166-9.678-5.572-8.578-4.942-16.067-9.274L699 899.5l-6.5-3.75-3.25-1.875-35.75-20.625-3.25-1.875-6.495-3.748-16.325-9.412-34.231-19.864-21.932-12.621-24.517-14.105-1.842-1.064L541 808v-2l11.688-6.75 1.787-1.032 23.15-13.281 25.087-14.518 31.984-18.515 9.988-5.764 29.941-17.203 25.076-14.511 51.612-29.75 9.063-5.195 2.003-1.153 5.2-3C770 674 770 674 771 674z" fill="#f3a926"/><path d="M771 140v266c-8.327-4.163-16.336-8.209-24.25-13l-5.699-3.402-2.978-1.777-16.135-9.383-3.329-1.918-22.777-13.032-22.891-13.277L653.5 339l-25.559-14.789-22.012-12.674-19.804-11.474-27.289-15.625L551 280l-2.884-1.637-2.78-1.613-2.522-1.453L541 274v-2c1.791-1.274 1.791-1.274 4.336-2.73l2.875-1.66 3.165-1.797 3.27-1.881 6.882-3.945 13.14-7.57 9.742-5.619 13.273-7.656 29.941-17.203 25.087-14.518 31.984-18.515 9.988-5.764 29.941-17.203 23.063-13.312 2.969-1.731 16.358-9.815C769 140 769 140 771 140z" fill="#38ad9b"/><path d="M309 140c3.495 1.398 6.45 2.717 9.676 4.547l2.72 1.539 2.917 1.665 3.075 1.747 27.452 15.906 28.878 16.707L400 191.5l6.5 3.75 65 37.5 3.251 1.875 6.49 3.745 16.399 9.45 16.185 9.342 6.451 3.726 9.349 5.424 2.876 1.653 2.601 1.523 2.292 1.329L539 272v2l-2.158 1.231-48.625 27.91L472 312.5l-3.246 1.873-16.324 9.412-31.305 18.152-27.913 16.082-27.267 15.758L331 394l-3.171 1.827-8.892 5.111-2.706 1.559-2.454 1.406-2.149 1.234C310 406 310 406 309 406V140z" fill="#f3a926"/><path d="M309 674c7.909 3.954 15.546 7.944 23.125 12.438l6.328 3.719 3.268 1.922 16.154 9.359 3.27 1.885 6.573 3.787L384 716.5l6.5 3.75 91 52.5 3.253 1.877 6.466 3.73 15.014 8.66 5.252 3.028 6.539 3.77 5.968 3.451 6.432 3.656 3.335 1.891 3.043 1.707L539 806v2l-87.75 50.625-6.495 3.748-16.325 9.412-31.305 18.152L371 905l-26.375 15.188-2.92 1.704-15.017 8.871-3.084 1.837-5.827 3.492-2.612 1.558-2.298 1.38C311 940 311 940 309 940V674z" fill="#38ad9b"/><path d="M1003 541l.255 91.671.019 10.844.004 2.18.107 34.867.085 35.826.058 20.102.037 18.95.03 6.927c.222 27.906.222 27.906-7.596 39.632-3.486-.677-6.177-2.07-9.262-3.809l-3.113-1.748-3.313-1.881-3.428-1.934-20.3-11.739-19.022-11.077-3.355-1.933-6.812-3.924L911 754.5l-6.5-3.75-68.251-39.376-6.488-3.743-16.437-9.487-6.637-3.832-3.236-1.87-15.682-8.982-2.954-1.677-5.497-3.105-2.444-1.386-2.133-1.202C773 675 773 675 771 673l1.98-1.075c14.933-8.125 29.814-16.362 44.437-25.036l19.021-11.076 3.355-1.933 6.812-3.924L863 620.5l6.5-3.75 3.25-1.875 61.75-35.625 3.251-1.876 6.488-3.743 16.437-9.487 16.206-9.346 9.349-5.408 5.77-3.328 2.681-1.559 2.444-1.406 2.133-1.234C1001 541 1001 541 1003 541z" fill="#e44d52"/><path d="M84 278c3.391.67 6.011 1.975 9.016 3.668l3.004 1.685 3.231 1.834 3.373 1.903 28.287 16.347 18.965 11 3.273 1.886 6.57 3.785L176 329.5l6.5 3.75 68.252 39.376 6.476 3.735 16.624 9.599L309 406l-7.805 4.836-2.924 1.707-3.146 1.832-3.264 1.902-22.939 13.19-19.485 11.283-26.312 15.188-36.907 21.204L170 486.5l-6.5 3.75-39 22.5-3.256 1.879-6.441 3.713-15.293 8.855-7.26 4.222-5.152 3.01-3.129 1.816-2.768 1.615C79 539 79 539 77 539l-.255-91.671-.019-10.844-.004-2.18-.107-34.867-.085-35.826-.058-20.102-.037-18.95-.03-6.927C76.182 289.726 76.182 289.726 84 278z" fill="#e44d51"/><path d="M77 540l2.906 1.663 3.816 2.182 1.91 1.093 13.744 7.686c9.185 5.074 18.235 10.37 27.289 15.672l19.211 11.141 3.271 1.885 6.571 3.786L172 594.5l6.5 3.75 65 37.5 3.252 1.876 6.483 3.74 16.511 9.524L308 673c-2.494 2.796-5.252 4.433-8.504 6.266l-3.393 1.924-1.807 1.016-7.59 4.293-3.924 2.223-18.906 10.841-6.445 3.723-3.212 1.856L238 714.5l-6.5 3.75-68.25 39.375-6.495 3.748-16.325 9.412L108 789.563l-2.911 1.696-2.777 1.621-2.668 1.555-5.445 3.3-2.699 1.668-2.406 1.511C87 802 87 802 84 802l-2.375-5-1.336-2.812c-2.924-7.231-3.578-13.663-3.53-21.375l-.005-3.028.019-10-.001-7.186.021-17.459.02-20.324.037-36.241.041-35.194.002-2.193.008-10.893L77 540z" fill="#4d3884"/></svg>